{"title":"Winter's Tale 2014 HDRip XviD titler","uid":10284927,"size":1203284389,"categoryP":"video","categoryS":"movies","magnet":"?xt=urn:btih:cc76e06ace755aa881217555a29959df28867938&amp;dn=Winter%27s+Tale+2014+HDRip+XviD+titler&amp;tr=udp%3A%2F%2Ftracker.openbittorrent.com%3A80&amp;tr=udp%3A%2F%2Fopen.demonii.com%3A1337&amp;tr=udp%3A%2F%2Ftracker.coppersurfer.tk%3A6969&amp;tr=udp%3A%2F%2Fexodus.desync.com%3A6969","seeders":1,"leechers":0,"uploader":"movieZ.freak","files":6,"time":1401765875,"description":"SOURCE: Winters Tale 2014 720p WEB-DL H264 AC3 - EVO\n\n\n\n &lt;a href=&quot;\nhttp://www.imdb.com/title/tt1837709/&quot; rel=&quot;nofollow&quot; target=&quot;_NEW&quot;&gt;\nhttp://www.imdb.com/title/tt1837709/&lt;/a&gt;\n\n\n &lt;a href=&quot;\nhttp://www.rottentomatoes.com/m/winters_tale_2014/&quot; rel=&quot;nofollow&quot; target=&quot;_NEW&quot;&gt;\nhttp://www.rottentomatoes.com/m/winters_tale_2014/&lt;/a&gt;\n\n\n &lt;a href=&quot;\nhttp://en.wikipedia.org/wiki/Winter%27s_Tale_%28film%29&quot; rel=&quot;nofollow&quot; target=&quot;_NEW&quot;&gt;\nhttp://en.wikipedia.org/wiki/Winter%27s_Tale_%28film%29&lt;/a&gt;\n\n\n\n\n- SAMPLE: Yes\n\n\n- SUBTITLE: English\n\n\n- LANGUAGE / AUDIO: English\n\n\n\n\nSCREENSHOTS:\n-------------------    &lt;a href=&quot;\nhttp://someimage.com/R07x&quot; rel=&quot;nofollow&quot; target=&quot;_NEW&quot;&gt;\nhttp://someimage.com/R07x&lt;/a&gt;\n\n\n\n\nDIRECTOR: Akiva Goldsman\n\n\n\n\nCAST: Colin Farrell, Jessica Brown Findlay, Russell Crowe, William Hurt, Jennifer Connelly, Will Smith, Graham Greene, ...\n\n\n\nPLOT:\n-----------\nSet in a mythic New York City and spanning more than a century, &quot;Winter's Tale&quot; is a story of miracles, crossed destinies, and the age-old battle between good and evil. The film stars Colin Farrell (&quot;Total Recall&quot;), Jessica Brown Findlay (TV's &quot;Downton Abbey&quot;), and Oscar (R) winners Jennifer Connelly (&quot;A Beautiful Mind&quot;), William Hurt (&quot;Kiss of the Spider Woman&quot;), Eva Marie Saint (&quot;On the Waterfront&quot;) and Russell Crowe (&quot;Gladiator&quot;). &quot;Winter's Tale&quot; also introduces young newcomers Ripley Sobo and Mckayla Twiggs (both from Broadway's &quot;Once&quot;). The film marks the directorial debut of Academy Award (R)-winning screenwriter Akiva Goldsman (&quot;A Beautiful Mind&quot;), who also wrote the screenplay, based on the acclaimed novel by Mark Helprin. Goldsman is also producing the film with Marc Platt (&quot;Drive&quot;), Michael Tadross (&quot;Sherlock Holmes&quot;) and Tony Allard (Showtime's &quot;The Baby Dance&quot;). The executive producers are Kerry Foster and Bruce Berman. The behind-the-scenes creative team includes five-time Oscar (R)-nominated director of photography Caleb Deschanel (&quot;The Passion of the Christ,&quot; &quot;The Patriot&quot;), production designer Naomi Shohan (&quot;Constantine,&quot; &quot;I Am Legend&quot;), costume designer Michael Kaplan (&quot;Mission: Impossible - Ghost Protocol,&quot; &quot;Star Trek&quot;) and editors Wayne Wahrman (&quot;I Am Legend&quot;) and Oscar (R) nominee Tim Squyres (&quot;Life of Pi,&quot; &quot;Crouching Tiger, Hidden Dragon&quot;). The music is composed by Oscar (R) winner Hans Zimmer (&quot;The Lion King,&quot; &quot;Inception,&quot; &quot;Man of Steel&quot;). A presentation of Warner Bros. Pictures, in association with Village Roadshow Pictures, &quot;Winter's Tale&quot; opens February 14, 2014 and will be distributed by Warner Bros. Pictures, a Warner Bros. Entertainment Company, and in select territories by Village Roadshow Pictures.\n\n\n************************************\n\n- Duration: 1h 58mn\n\n- Bit rate: 1199 Kbps\n\n- Res: 720 x 296\n\n- AR:  2.40:1\n\n- FPS: 23.976 fps\n\n- Audio: AC3, 2 channels, 128 Kbps\n\n************************************\n\n\nGeneral\n-------------\nFormat : AVI\nFormat/Info : Audio Video Interleave\nFile size : 1.10 GiB\nDuration : 1h 58mn\nOverall bit rate : 1336 Kbps\nWriting library : VirtualDub build 35491\n\n\nVideo\n-----------\nFormat : MPEG-4 Visual\nFormat profile : Advanced Simple@L5\nFormat settings, BVOP : 2\nFormat settings, QPel : No\nFormat settings, GMC : No warppoints\nFormat settings, Matrix : Default (H.263)\nMuxing mode : Packed bitstream\nCodec ID : XVID\nCodec ID/Hint : XviD\nDuration : 1h 58mn\nBit rate : 1199 Kbps\nWidth : 720 pixels\nHeight : 296 pixels\nDisplay aspect ratio : 2.40:1\nFrame rate : 23.976 fps\nColor space : YUV\nChroma subsampling : 4:2:0\nBit depth : 8 bits\nScan type : Progressive\nCompression mode : Lossy\nBits/(Pixel*Frame) : 0.235\nStream size : 1 012 MiB (90%)\nWriting library : XviD 65\n\n\nAudio\n----------\nFormat : AC-3\nFormat/Info : Audio Coding 3\n Mode extension : CM (complete main)\nFormat settings, Endianness : Big\nCodec ID : 2000\nDuration : 1h 58mn\nBit rate mode : Constant\nBit rate : 128 Kbps\nChannel(s) : 2 channels\nChannel positions : Front: L R\nSampling rate : 48.0 KHz\nBit depth : 16 bits\nCompression mode : Lossy\nStream size : 108 MiB (10%)\nAlignment : Aligned on interleaves\nInterleave, duration : 42 ms (1.00 video frame)\nInterleave, preload duration : 512 ms","torrent":{"xt":"urn:btih:cc76e06ace755aa881217555a29959df28867938","amp;dn":"Winter%27s+Tale+2014+HDRip+XviD+titler","amp;tr":["udp%3A%2F%2Ftracker.openbittorrent.com%3A80","udp%3A%2F%2Fopen.demonii.com%3A1337","udp%3A%2F%2Ftracker.coppersurfer.tk%3A6969","udp%3A%2F%2Fexodus.desync.com%3A6969"],"infoHash":"cc76e06ace755aa881217555a29959df28867938","infoHashBuffer":{"type":"Buffer","data":[204,118,224,106,206,117,90,168,129,33,117,85,162,153,89,223,40,134,121,56]},"announce":[],"urlList":[]}}